<mxfile host="65bd71144e">
    <diagram name="Страница — 1" id="h8AnzWCXBsPaWdk4dMgH">
        <mxGraphModel dx="626" dy="919" grid="1" gridSize="10" guides="1" tooltips="1" connect="1" arrows="1" fold="1" page="1" pageScale="1" pageWidth="827" pageHeight="1169" math="0" shadow="0">
            <root>
                <mxCell id="0"/>
                <mxCell id="1" parent="0"/>
                <mxCell id="4" style="edgeStyle=orthogonalEdgeStyle;rounded=0;html=1;exitX=0.5;exitY=1;exitDx=0;exitDy=0;" edge="1" parent="1" source="P7Fcce9K3j6FbLcGQpMX-28" target="P7Fcce9K3j6FbLcGQpMX-44">
                    <mxGeometry relative="1" as="geometry"/>
                </mxCell>
                <mxCell id="P7Fcce9K3j6FbLcGQpMX-28" value="Находим наименьший элемент &lt;br&gt;h &amp;gt; 0 среди невыделенных&lt;br&gt;элементов" style="rounded=0;whiteSpace=wrap;html=1;strokeColor=default;strokeWidth=1;fontSize=12;gradientColor=none;" parent="1" vertex="1">
                    <mxGeometry x="53" y="240" width="205" height="80" as="geometry"/>
                </mxCell>
                <mxCell id="3" style="edgeStyle=orthogonalEdgeStyle;html=1;exitX=0;exitY=0.5;exitDx=0;exitDy=0;entryX=0.5;entryY=0;entryDx=0;entryDy=0;rounded=0;" edge="1" parent="1" source="P7Fcce9K3j6FbLcGQpMX-31" target="P7Fcce9K3j6FbLcGQpMX-28">
                    <mxGeometry relative="1" as="geometry"/>
                </mxCell>
                <mxCell id="10" style="edgeStyle=orthogonalEdgeStyle;rounded=0;html=1;exitX=1;exitY=0.5;exitDx=0;exitDy=0;entryX=0.5;entryY=0;entryDx=0;entryDy=0;" edge="1" parent="1" source="P7Fcce9K3j6FbLcGQpMX-31" target="P7Fcce9K3j6FbLcGQpMX-33">
                    <mxGeometry relative="1" as="geometry"/>
                </mxCell>
                <mxCell id="P7Fcce9K3j6FbLcGQpMX-31" value="Среди&amp;nbsp; невыделенных&lt;br&gt;элементов есть 0?" style="rhombus;whiteSpace=wrap;html=1;" parent="1" vertex="1">
                    <mxGeometry x="228" y="150" width="210" height="80" as="geometry"/>
                </mxCell>
                <mxCell id="6" style="edgeStyle=orthogonalEdgeStyle;rounded=0;html=1;exitX=0.5;exitY=1;exitDx=0;exitDy=0;" edge="1" parent="1" source="P7Fcce9K3j6FbLcGQpMX-32">
                    <mxGeometry relative="1" as="geometry">
                        <mxPoint x="333" y="120" as="targetPoint"/>
                        <Array as="points">
                            <mxPoint x="156" y="580"/>
                            <mxPoint x="30" y="580"/>
                            <mxPoint x="30" y="120"/>
                        </Array>
                    </mxGeometry>
                </mxCell>
                <mxCell id="P7Fcce9K3j6FbLcGQpMX-32" value="Добавляем h к выделенным строкам" style="rounded=0;whiteSpace=wrap;html=1;strokeColor=default;strokeWidth=1;fontSize=12;gradientColor=none;" parent="1" vertex="1">
                    <mxGeometry x="53" y="460" width="205" height="80" as="geometry"/>
                </mxCell>
                <mxCell id="11" style="edgeStyle=orthogonalEdgeStyle;rounded=0;html=1;exitX=0.5;exitY=1;exitDx=0;exitDy=0;" edge="1" parent="1" source="P7Fcce9K3j6FbLcGQpMX-33" target="7">
                    <mxGeometry relative="1" as="geometry"/>
                </mxCell>
                <mxCell id="P7Fcce9K3j6FbLcGQpMX-33" value="Отмечаем его как 0`" style="rounded=0;whiteSpace=wrap;html=1;strokeColor=default;strokeWidth=1;fontSize=12;gradientColor=none;" parent="1" vertex="1">
                    <mxGeometry x="422.5" y="240" width="205" height="80" as="geometry"/>
                </mxCell>
                <mxCell id="5" style="edgeStyle=orthogonalEdgeStyle;rounded=0;html=1;exitX=0.5;exitY=1;exitDx=0;exitDy=0;entryX=0.5;entryY=0;entryDx=0;entryDy=0;" edge="1" parent="1" source="P7Fcce9K3j6FbLcGQpMX-44" target="P7Fcce9K3j6FbLcGQpMX-32">
                    <mxGeometry relative="1" as="geometry"/>
                </mxCell>
                <mxCell id="P7Fcce9K3j6FbLcGQpMX-44" value="Вычитаем h из невыделенных столбцов" style="rounded=0;whiteSpace=wrap;html=1;strokeColor=default;strokeWidth=1;fontSize=12;gradientColor=none;" parent="1" vertex="1">
                    <mxGeometry x="53" y="350" width="205" height="80" as="geometry"/>
                </mxCell>
                <mxCell id="2" style="edgeStyle=none;html=1;exitX=0.5;exitY=1;exitDx=0;exitDy=0;entryX=0.5;entryY=0;entryDx=0;entryDy=0;" edge="1" parent="1" source="P7Fcce9K3j6FbLcGQpMX-46" target="P7Fcce9K3j6FbLcGQpMX-31">
                    <mxGeometry relative="1" as="geometry"/>
                </mxCell>
                <mxCell id="P7Fcce9K3j6FbLcGQpMX-46" value="А" style="ellipse;whiteSpace=wrap;html=1;aspect=fixed;" parent="1" vertex="1">
                    <mxGeometry x="293" y="30" width="80" height="80" as="geometry"/>
                </mxCell>
                <mxCell id="12" style="edgeStyle=orthogonalEdgeStyle;rounded=0;html=1;exitX=1;exitY=0.5;exitDx=0;exitDy=0;" edge="1" parent="1" source="7" target="8">
                    <mxGeometry relative="1" as="geometry"/>
                </mxCell>
                <mxCell id="19" style="edgeStyle=orthogonalEdgeStyle;rounded=0;html=1;exitX=0;exitY=0.5;exitDx=0;exitDy=0;" edge="1" parent="1" source="7" target="15">
                    <mxGeometry relative="1" as="geometry"/>
                </mxCell>
                <mxCell id="7" value="В одной строке &lt;br&gt;с этим 0` есть 0*?" style="rhombus;whiteSpace=wrap;html=1;" vertex="1" parent="1">
                    <mxGeometry x="420" y="340" width="210" height="80" as="geometry"/>
                </mxCell>
                <mxCell id="13" style="edgeStyle=orthogonalEdgeStyle;rounded=0;html=1;exitX=0.5;exitY=1;exitDx=0;exitDy=0;" edge="1" parent="1" source="8" target="9">
                    <mxGeometry relative="1" as="geometry"/>
                </mxCell>
                <mxCell id="8" value="Снимаем выделение&amp;nbsp;&lt;br&gt;со столбца с этим 0*" style="rounded=0;whiteSpace=wrap;html=1;strokeColor=default;strokeWidth=1;fontSize=12;gradientColor=none;" vertex="1" parent="1">
                    <mxGeometry x="573" y="440" width="205" height="80" as="geometry"/>
                </mxCell>
                <mxCell id="14" style="edgeStyle=orthogonalEdgeStyle;rounded=0;html=1;exitX=0.5;exitY=1;exitDx=0;exitDy=0;" edge="1" parent="1" source="9">
                    <mxGeometry relative="1" as="geometry">
                        <mxPoint x="333" y="130" as="targetPoint"/>
                        <Array as="points">
                            <mxPoint x="676" y="660"/>
                            <mxPoint x="800" y="660"/>
                            <mxPoint x="800" y="130"/>
                        </Array>
                    </mxGeometry>
                </mxCell>
                <mxCell id="9" value="Выделяем строку с этим 0`" style="rounded=0;whiteSpace=wrap;html=1;strokeColor=default;strokeWidth=1;fontSize=12;gradientColor=none;" vertex="1" parent="1">
                    <mxGeometry x="573" y="550" width="205" height="80" as="geometry"/>
                </mxCell>
                <mxCell id="20" style="edgeStyle=orthogonalEdgeStyle;rounded=0;html=1;exitX=0.5;exitY=1;exitDx=0;exitDy=0;" edge="1" parent="1" source="15" target="16">
                    <mxGeometry relative="1" as="geometry"/>
                </mxCell>
                <mxCell id="15" value="Строим непродолжаемую &lt;br&gt;L-цепочку &lt;br&gt;(от текущего 0` по столбцу к 0*, затем по строке к 0`, затем по столбцу к 0*, ... , по строке к 0` )" style="rounded=0;whiteSpace=wrap;html=1;strokeColor=default;strokeWidth=1;fontSize=12;gradientColor=none;" vertex="1" parent="1">
                    <mxGeometry x="280" y="440" width="205" height="80" as="geometry"/>
                </mxCell>
                <mxCell id="21" style="edgeStyle=orthogonalEdgeStyle;rounded=0;html=1;exitX=0.5;exitY=1;exitDx=0;exitDy=0;entryX=0.5;entryY=0;entryDx=0;entryDy=0;" edge="1" parent="1" source="16" target="17">
                    <mxGeometry relative="1" as="geometry"/>
                </mxCell>
                <mxCell id="16" value="В пределах L-цепочки &lt;br&gt;0* заменить на 0, &lt;br&gt;0` заменить&amp;nbsp;на 0*" style="rounded=0;whiteSpace=wrap;html=1;strokeColor=default;strokeWidth=1;fontSize=12;gradientColor=none;" vertex="1" parent="1">
                    <mxGeometry x="280" y="550" width="205" height="80" as="geometry"/>
                </mxCell>
                <mxCell id="29" style="edgeStyle=orthogonalEdgeStyle;rounded=0;html=1;exitX=0.5;exitY=1;exitDx=0;exitDy=0;entryX=0.5;entryY=0;entryDx=0;entryDy=0;" edge="1" parent="1" source="17" target="27">
                    <mxGeometry relative="1" as="geometry"/>
                </mxCell>
                <mxCell id="17" value="Снимаем все выделения, &lt;br&gt;кроме 0*" style="rounded=0;whiteSpace=wrap;html=1;strokeColor=default;strokeWidth=1;fontSize=12;gradientColor=none;" vertex="1" parent="1">
                    <mxGeometry x="280" y="660" width="205" height="80" as="geometry"/>
                </mxCell>
                <mxCell id="18" value="Б" style="ellipse;whiteSpace=wrap;html=1;aspect=fixed;" vertex="1" parent="1">
                    <mxGeometry x="342.5" y="880" width="80" height="80" as="geometry"/>
                </mxCell>
                <mxCell id="25" value="Да" style="text;html=1;align=center;verticalAlign=middle;resizable=0;points=[];autosize=1;strokeColor=none;fillColor=none;" vertex="1" parent="1">
                    <mxGeometry x="640" y="350" width="40" height="30" as="geometry"/>
                </mxCell>
                <mxCell id="26" value="Да" style="text;html=1;align=center;verticalAlign=middle;resizable=0;points=[];autosize=1;strokeColor=none;fillColor=none;" vertex="1" parent="1">
                    <mxGeometry x="460" y="160" width="40" height="30" as="geometry"/>
                </mxCell>
                <mxCell id="28" style="edgeStyle=orthogonalEdgeStyle;rounded=0;html=1;exitX=0.5;exitY=1;exitDx=0;exitDy=0;entryX=0.5;entryY=0;entryDx=0;entryDy=0;" edge="1" parent="1" source="27" target="18">
                    <mxGeometry relative="1" as="geometry"/>
                </mxCell>
                <mxCell id="27" value="k = k + 1" style="rounded=0;whiteSpace=wrap;html=1;strokeColor=default;strokeWidth=1;fontSize=12;gradientColor=none;" vertex="1" parent="1">
                    <mxGeometry x="280" y="770" width="205" height="80" as="geometry"/>
                </mxCell>
            </root>
        </mxGraphModel>
    </diagram>
</mxfile>